# xmcd CD database file
#
# Track frame offsets:
#	150
#	15289
#	29009
#	44312
#	62649
#	76995
#	90862
#	109844
#	124028
#	138884
#	159541
#
# Disc length: 2343 seconds
#
# Revision: 0
# Processed by: cddbd v1.5.1PL0 Copyright (c) Steve Scherf et al.
# Submitted via: CDex 1.51
#
DISCID=7d09250b
DTITLE=Beezewax - South Of Boredom
DYEAR=2000
DGENRE=Alt Rock
TTITLE0=Play It Safe
TTITLE1=Dying To Hit That Note
TTITLE2=In The Stands
TTITLE3=Two Holes Apart
TTITLE4=Counterfeit
TTITLE5=Dead End Kids
TTITLE6=And It's All About You
TTITLE7=God Knows Where You Are
TTITLE8=Defined Failure
TTITLE9=In A Run
TTITLE10=That's Not Here
EXTD=YEAR: 2000
EXTT0=
EXTT1=
EXTT2=
EXTT3=
EXTT4=
EXTT5=
EXTT6=
EXTT7=
EXTT8=
EXTT9=
EXTT10=
PLAYORDER=
